<svg width="16" height="16" viewBox="0 0 16 16" fill="none" xmlns="http://www.w3.org/2000/svg">
<path fill-rule="evenodd" clip-rule="evenodd" d="M15.1869 4.26282L11.7372 0.813105L0.813105 11.7372L4.26282 15.1869L15.1869 4.26282ZM12.3122 0.238153C11.9947 -0.0793844 11.4798 -0.0793844 11.1623 0.238153L0.238153 11.1623C-0.0793842 11.4798 -0.0793845 11.9946 0.238153 12.3122L3.68787 15.7619C4.00541 16.0794 4.52024 16.0794 4.83777 15.7619L15.7619 4.83777C16.0794 4.52024 16.0794 4.00541 15.7619 3.68787L12.3122 0.238153Z" fill="black"/>
<path d="M9.42905 2.13646C9.58785 1.97769 9.84521 1.97769 10.004 2.13646L11.539 3.67143C11.6978 3.8302 11.6978 4.08761 11.539 4.24638C11.3802 4.40515 11.1228 4.40515 10.964 4.24638L9.42905 2.71141C9.27025 2.55264 9.27025 2.29522 9.42905 2.13646Z" fill="black"/>
<path d="M7.15114 4.29065C7.30991 4.13188 7.56733 4.13188 7.7261 4.29065L9.26106 5.82562C9.41986 5.98438 9.41986 6.2418 9.26106 6.40057C9.10234 6.55934 8.8449 6.55934 8.6861 6.40057L7.15114 4.8656C6.99237 4.70683 6.99237 4.44941 7.15114 4.29065Z" fill="black"/>
<path d="M4.99446 6.56595C5.15322 6.40718 5.41063 6.40718 5.5694 6.56595L7.10438 8.10089C7.26315 8.25969 7.26315 8.51713 7.10438 8.67585C6.94561 8.83465 6.68819 8.83465 6.52943 8.67585L4.99446 7.1409C4.83568 6.98213 4.83568 6.72471 4.99446 6.56595Z" fill="black"/>
<path d="M2.69838 8.70209C2.85714 8.54329 3.11456 8.54329 3.27333 8.70209L4.8083 10.2371C4.96707 10.3959 4.96707 10.6532 4.8083 10.812C4.64953 10.9707 4.39211 10.9707 4.23335 10.812L2.69838 9.27705C2.53961 9.11825 2.53961 8.86081 2.69838 8.70209Z" fill="black"/>
</svg>
