<svg width="40" height="40" viewBox="0 0 40 40" fill="none" xmlns="http://www.w3.org/2000/svg">
<path d="M20 39.9871C31.0457 39.9871 40 31.0357 40 19.9935C40 8.95142 31.0457 0 20 0C8.95431 0 0 8.95142 0 19.9935C0 31.0357 8.95431 39.9871 20 39.9871Z" fill="#ACDDDE"/>
<path d="M19.9978 40C28.5038 40 35.7647 34.6892 38.6563 27.2061C33.4344 24.0588 26.6446 22.5656 19.2207 22.5656C12.3939 22.5656 6.10367 23.8296 1.07477 26.4796C3.76731 34.3435 11.2193 40 19.9978 40Z" fill="#9ACA42"/>
<path d="M11.0302 17.9516C11.0302 13.0812 13.9704 9.1333 19.851 9.1333C25.7316 9.1333 28.6721 13.0812 28.6721 17.9516C28.6721 22.8216 25.4865 26.7698 19.851 26.7698C14.2154 26.7698 11.0302 22.8216 11.0302 17.9516Z" fill="#84B340"/>
<path d="M19.5449 31.1792L19.8436 14.2543C19.8436 13.9121 20.1212 13.6343 20.4639 13.6343C20.8062 13.6343 21.0842 13.9118 21.0842 14.2543L21.3826 31.1792C21.3826 31.6866 19.5449 31.6866 19.5449 31.1792Z" fill="#49341B"/>
<path d="M20.5239 24.6716C20.4144 24.6716 20.3038 24.646 20.1999 24.5924C19.8538 24.4131 19.7196 23.9881 19.8986 23.6428L23.9053 16.362C24.0338 16.1148 24.3386 16.0182 24.5852 16.1464C24.8325 16.2749 24.9291 16.5789 24.8006 16.8264L21.1505 24.2909C21.0248 24.5327 20.7785 24.6716 20.5239 24.6716Z" fill="#49341B"/>
<path d="M20.2577 25.2175C19.9918 25.2175 19.731 25.0884 19.5734 24.85L15.1133 17.6415C14.9478 17.3903 15.016 17.0518 15.2674 16.8857C15.5178 16.7194 15.8574 16.7882 16.0238 17.0395L20.9403 23.9461C21.1901 24.3233 21.0868 24.8313 20.7091 25.0811C20.57 25.1739 20.4128 25.2175 20.2577 25.2175Z" fill="#49341B"/>
</svg>
