<svg width="24" height="24" viewBox="0 0 24 24" fill="none" xmlns="http://www.w3.org/2000/svg">
<path fill-rule="evenodd" clip-rule="evenodd" d="M5.44213 0H1.07912L0.0159799 16.4345C-0.0483692 17.4033 0.0820735 18.3753 0.399206 19.2901C0.716339 20.205 1.21339 21.0432 1.85949 21.7527C2.50559 22.4622 3.28694 23.0278 4.15502 23.4144C5.0231 23.801 5.95937 24.0003 6.90568 24H17.0953C18.0403 24.0002 18.9754 23.8012 19.8424 23.4155C20.7095 23.0298 21.4902 22.4655 22.1361 21.7575C22.782 21.0496 23.2794 20.2131 23.5974 19.3C23.9154 18.3868 24.0473 17.4163 23.9849 16.4486L22.908 0H5.44213ZM5.44213 1.41676H2.37698L1.39668 16.5336C1.34561 17.3082 1.45018 18.0853 1.7039 18.8166C1.95762 19.548 2.35507 20.2181 2.87161 20.7853C3.38816 21.3526 4.01277 21.8048 4.70671 22.1141C5.40065 22.4234 6.14911 22.5831 6.90568 22.5832H17.0953C17.853 22.585 18.603 22.4268 19.2985 22.1184C19.9941 21.8099 20.6204 21.358 21.1384 20.7905C21.6564 20.2231 22.0551 19.5523 22.3097 18.82C22.5642 18.0876 22.6692 17.3094 22.6181 16.5336L21.6239 1.41676H18.5588V2.30933C18.5588 3.19308 18.3892 4.06817 18.0596 4.88465C17.73 5.70112 17.2469 6.44299 16.6379 7.0679C16.0289 7.6928 15.3059 8.1885 14.5102 8.5267C13.7145 8.86489 12.8617 9.03896 12.0005 9.03896C11.1392 9.03896 10.2864 8.86489 9.4907 8.5267C8.69501 8.1885 7.97202 7.6928 7.36302 7.0679C6.75403 6.44299 6.27094 5.70112 5.94136 4.88465C5.61177 4.06817 5.44213 3.19308 5.44213 2.30933V1.41676ZM17.1781 1.41676H6.82284V2.30933C6.82284 3.71839 7.36833 5.06974 8.33933 6.06609C9.31032 7.06245 10.6273 7.6222 12.0005 7.6222C13.3737 7.6222 14.6906 7.06245 15.6616 6.06609C16.6326 5.06974 17.1781 3.71839 17.1781 2.30933V1.41676Z" fill="black"/>
</svg>
