<svg width="16" height="16" viewBox="0 0 16 16" fill="none" xmlns="http://www.w3.org/2000/svg">
<path d="M6.20352 0.888889C6.00536 0.888889 5.82266 1.02095 5.77161 1.21905L5.76999 1.22535C5.7111 1.44017 5.6352 1.71586 5.52672 1.98087C5.41992 2.24176 5.26684 2.53052 5.03121 2.75463C4.39886 3.36444 3.49751 3.43639 2.80269 3.43639C2.54682 3.43639 2.29219 3.40649 2.03963 3.34751C1.99996 3.34003 1.93039 3.32658 1.85492 3.30044C1.79952 3.28554 1.75892 3.27989 1.72096 3.27989C1.65123 3.27989 1.5766 3.29691 1.5105 3.32826C1.40488 3.37835 1.32662 3.46466 1.29107 3.57385L0.961665 4.59797C0.888616 4.82845 1.02037 5.06175 1.25268 5.13429C1.83672 5.31257 2.35023 5.61075 2.77863 6.01708C4.26314 7.42512 4.26314 9.70523 2.77863 11.1133L2.77396 11.1177C2.40583 11.4572 1.97752 11.7369 1.47862 11.9184C1.26912 11.9958 1.14865 12.2221 1.21801 12.4444L1.21725 12.4422L1.21854 12.4461L1.21801 12.4444L1.71054 13.9498L1.70926 13.9462L1.71223 13.955L1.71054 13.9498C1.75766 14.0801 1.86685 14.1842 1.98813 14.2264C1.98342 14.2253 1.97859 14.224 1.97362 14.2227L1.9987 14.2299C1.99516 14.2288 1.99164 14.2276 1.98813 14.2264C2.06141 14.2447 2.10419 14.2503 2.14265 14.2503C2.22144 14.2503 2.31996 14.2221 2.40219 14.1671C2.65729 13.9957 2.93732 13.8589 3.21111 13.7532L3.21759 13.7506C3.64931 13.5908 4.10188 13.5113 4.57186 13.5113C5.43386 13.5113 6.27155 13.8 6.93124 14.3065L6.93967 14.313L6.95072 14.3223C7.02939 14.3886 7.11841 14.4637 7.20876 14.549C7.20644 14.5469 7.20411 14.5448 7.20177 14.5428L7.21531 14.5551C7.21313 14.5531 7.21095 14.551 7.20876 14.549C7.35031 14.6738 7.46826 14.8065 7.57212 14.9437L7.56879 14.9396L7.57703 14.9501C7.57539 14.948 7.57377 14.9458 7.57212 14.9437C7.65915 15.0496 7.79454 15.1112 7.92687 15.1112V16C7.49257 16 7.07976 15.8023 6.8183 15.476L6.81409 15.4707L6.81006 15.4653C6.73347 15.3637 6.65336 15.2747 6.56193 15.1947L6.55503 15.1886L6.54839 15.1823C6.4795 15.117 6.40958 15.0576 6.32941 14.9901C6.33212 14.9921 6.33482 14.9942 6.33753 14.9962L6.321 14.9829C6.32381 14.9853 6.32662 14.9877 6.32941 14.9901C5.83534 14.6136 5.20972 14.4002 4.57186 14.4002C4.21802 14.4002 3.88321 14.4594 3.56423 14.5771L3.56752 14.5758L3.56103 14.5783L3.56423 14.5771C3.34418 14.6624 3.13111 14.7682 2.94712 14.8918C2.71768 15.0454 2.43054 15.1393 2.14265 15.1393C1.98192 15.1393 1.84439 15.1109 1.725 15.08L1.71236 15.0768L1.69992 15.0728C1.27651 14.9389 0.95162 14.6121 0.815993 14.2262L0.812918 14.2174L0.316722 12.7006C0.112277 12.0542 0.449815 11.3428 1.13774 11.0898L1.13958 11.0892C1.50085 10.9579 1.82307 10.7517 2.11404 10.4838L2.11171 10.4861L2.11641 10.4817L2.11404 10.4838C3.23055 9.42245 3.22978 7.70475 2.11171 6.64427C1.78875 6.33795 1.40433 6.11458 0.962242 5.9798L0.960011 5.97911C0.239726 5.75577 -0.159495 5.03276 0.0603307 4.34209L0.0607307 4.34085L0.390722 3.3149L0.391051 3.31388C0.502224 2.97116 0.753904 2.69241 1.08815 2.53389C1.27872 2.44352 1.49736 2.391 1.72096 2.391C1.88143 2.391 2.02057 2.41911 2.14094 2.45336L2.16108 2.45909L2.17999 2.46626C2.17999 2.46626 2.18337 2.46729 2.18872 2.46856C2.19888 2.47098 2.21084 2.47334 2.23532 2.47798L2.24634 2.48007L2.25725 2.48266C2.44089 2.5262 2.62246 2.5475 2.80269 2.5475C3.48231 2.5475 4.0204 2.45971 4.35965 2.13187L4.36272 2.1289C4.46538 2.03152 4.56138 1.87406 4.64886 1.66035C4.73451 1.45109 4.79798 1.22439 4.85803 1.00536L4.85713 1.00883L4.8588 1.00255L4.85803 1.00536C5.00992 0.422748 5.55961 0 6.20352 0H9.43023C10.0754 0 10.626 0.424432 10.7766 1.00883L10.7771 1.01064C10.8297 1.21874 10.8966 1.44592 10.9858 1.65364C11.077 1.86596 11.1789 2.02787 11.2853 2.12891C11.6632 2.4873 12.2472 2.67793 12.8405 2.67793C12.945 2.67793 13.0497 2.67097 13.1548 2.65691C13.3457 2.62764 13.5333 2.57731 13.7022 2.50809C13.8826 2.43006 14.0765 2.391 14.2705 2.391C14.4664 2.391 14.6623 2.43087 14.8442 2.51049C15.1949 2.664 15.4749 2.94935 15.5904 3.31972L15.9382 4.29254L15.9408 4.3008C16.0486 4.64611 16.0108 5.02526 15.8139 5.34535C15.6173 5.66495 15.2847 5.88629 14.9136 5.96451L14.9075 5.9658C14.7285 6.00118 14.549 6.05899 14.3512 6.13212C14.0123 6.27539 13.6975 6.4778 13.4304 6.7312C12.8664 7.26614 12.5501 7.97973 12.5501 8.73899C12.5501 9.50102 12.8591 10.2126 13.4281 10.7447L13.4304 10.7469C13.7637 11.0631 14.1591 11.2958 14.6033 11.439C15.2736 11.6485 15.8083 12.3689 15.5727 13.0948L15.1786 14.3118L15.178 14.3138C15.0406 14.7307 14.7058 15.0489 14.2645 15.1798L14.2594 15.1813C14.142 15.2146 14.0021 15.2436 13.8486 15.2436C13.5477 15.2436 13.2427 15.1528 12.9906 14.9668L12.9874 14.9645C12.7992 14.8232 12.6045 14.7123 12.3935 14.6232L12.3953 14.624L12.3918 14.6225L12.3935 14.6232C12.0315 14.4742 11.6562 14.4002 11.2636 14.4002C10.6229 14.4002 10.0077 14.6066 9.5169 14.9885L9.52365 14.9829L9.51058 14.9935C9.51272 14.9919 9.51476 14.9902 9.5169 14.9885L9.28685 15.1826C9.28987 15.1796 9.29307 15.1766 9.29619 15.1736L9.2761 15.1916L9.28685 15.1826C9.19076 15.2745 9.11041 15.365 9.03725 15.4619C9.03841 15.4602 9.03956 15.4586 9.04072 15.457L9.03458 15.4653L9.03725 15.4619C8.78738 15.8067 8.36525 15.998 7.93374 16L7.93375 15.1112H7.92687C8.07761 15.1112 8.20045 15.0436 8.26143 14.9586L8.26747 14.9501C8.37459 14.8079 8.49227 14.6764 8.62925 14.5464L8.63903 14.5372L8.9033 14.3144L8.90996 14.3092C9.57298 13.7901 10.4037 13.5113 11.2636 13.5113C11.787 13.5113 12.2911 13.611 12.7719 13.8093L12.7754 13.8108C13.058 13.9298 13.3205 14.0792 13.5712 14.2672L13.57 14.2663L13.5732 14.2687L13.5712 14.2672C13.6489 14.3241 13.7468 14.3547 13.8486 14.3547C13.8781 14.3547 13.9206 14.349 13.9851 14.3309L13.9827 14.3316L13.9878 14.3302L13.9851 14.3309C14.1289 14.2876 14.2331 14.189 14.2789 14.0506L14.6728 12.8346C14.7303 12.6574 14.5885 12.37 14.3068 12.2827L14.3018 12.2812C13.7206 12.0941 13.2005 11.7884 12.7646 11.3752L12.7658 11.3763L12.7635 11.3741L12.7646 11.3752C12.0143 10.6728 11.6088 9.73285 11.6088 8.73899C11.6088 7.74204 12.0258 6.80368 12.7635 6.104C13.1173 5.76843 13.5326 5.50271 13.9786 5.3158L13.9878 5.31191L13.9973 5.3084C14.2164 5.22711 14.4543 5.14749 14.711 5.09646L14.7086 5.09696L14.7148 5.09572L14.711 5.09646C14.8339 5.0699 14.9404 4.99601 15 4.89889C15.0588 4.80347 15.0763 4.6812 15.0402 4.5593L15.0436 4.56876L15.0381 4.55234C15.0389 4.55465 15.0396 4.55698 15.0402 4.5593L14.6917 3.58476L14.6886 3.5744C14.6552 3.46345 14.5708 3.37054 14.4484 3.31696C14.3919 3.29224 14.3312 3.27989 14.2705 3.27989C14.2097 3.27989 14.149 3.29225 14.0925 3.31696L14.0829 3.32114C13.8324 3.42446 13.5645 3.49501 13.3001 3.53514L13.2923 3.53633C13.142 3.5567 12.9913 3.56683 12.8405 3.56683C12.0588 3.56683 11.2123 3.31934 10.6184 2.75611C10.3858 2.53546 10.2264 2.25045 10.1136 1.98759C9.99894 1.72056 9.9193 1.44476 9.86196 1.21833C9.81067 1.02063 9.62819 0.888889 9.43023 0.888889H6.20352Z" fill="black"/>
</svg>
