<svg width="16" height="16" viewBox="0 0 16 16" fill="none" xmlns="http://www.w3.org/2000/svg">
<path d="M0 0.594476C0 0.266157 0.179357 0 0.400604 0H8.5176C8.7388 0 8.91816 0.266157 8.91816 0.594476V2.16305V2.82506V3.38892V12.3397C8.75416 12.7487 8.70504 12.8712 8.44128 13.5287L5.77871 13.5284V12.3394H8.11696V1.18896H0.801208V12.3394H2.14736V13.5284H0.400604C0.179357 13.5284 0 13.2622 0 12.9339V0.594476Z" fill="black"/>
<path d="M15.1988 5.72891L8.91816 3.38891V2.16304L15.697 4.68864C15.8751 4.75501 16 4.99266 16 5.26523V12.934C16 13.2623 15.8206 13.5285 15.5994 13.5285H13.8457V12.3396H15.1988V5.72891ZM8.91816 12.3397L10.6754 12.3396L10.6754 13.5285L8.44128 13.5286L8.91816 12.3397Z" fill="black"/>
<path d="M6.17015 12.9605C6.17015 14.6392 5.25315 16 4.12196 16C2.99078 16 2.07377 14.6392 2.07377 12.9605C2.07377 11.2819 2.99078 9.92108 4.12196 9.92108C5.25315 9.92108 6.17015 11.2819 6.17015 12.9605ZM4.12196 14.811C4.81065 14.811 5.36895 13.9826 5.36895 12.9605C5.36895 11.9385 4.81065 11.1101 4.12196 11.1101C3.43327 11.1101 2.87498 11.9385 2.87498 12.9605C2.87498 13.9826 3.43327 14.811 4.12196 14.811Z" fill="black"/>
<path d="M14.0157 12.9605C14.0157 14.6392 13.0986 16 11.9674 16C10.8363 16 9.91928 14.6392 9.91928 12.9605C9.91928 11.2819 10.8363 9.92108 11.9674 9.92108C13.0986 9.92108 14.0157 11.2819 14.0157 12.9605ZM11.9674 14.811C12.6562 14.811 13.2145 13.9826 13.2145 12.9605C13.2145 11.9385 12.6562 11.1101 11.9674 11.1101C11.2788 11.1101 10.7205 11.9385 10.7205 12.9605C10.7205 13.9826 11.2788 14.811 11.9674 14.811Z" fill="black"/>
</svg>
