<svg width="24" height="24" viewBox="0 0 24 24" fill="none" xmlns="http://www.w3.org/2000/svg">
<path fill-rule="evenodd" clip-rule="evenodd" d="M7.76471 5.33333C7.76471 4.27247 8.21092 3.25505 9.0052 2.50491C9.79947 1.75476 10.8767 1.33333 12 1.33333C13.1233 1.33333 14.2005 1.75476 14.9948 2.50491C15.7891 3.25505 16.2353 4.27247 16.2353 5.33333C16.2353 6.3942 15.7891 7.41161 14.9948 8.16176C14.2005 8.91191 13.1233 9.33333 12 9.33333C10.8767 9.33333 9.79947 8.91191 9.0052 8.16176C8.21092 7.41161 7.76471 6.3942 7.76471 5.33333ZM12 0C10.5023 0 9.06596 0.561903 8.00693 1.5621C6.9479 2.56229 6.35294 3.91885 6.35294 5.33333C6.35294 6.74782 6.9479 8.10438 8.00693 9.10457C9.06596 10.1048 10.5023 10.6667 12 10.6667C13.4977 10.6667 14.934 10.1048 15.9931 9.10457C17.0521 8.10438 17.6471 6.74782 17.6471 5.33333C17.6471 3.91885 17.0521 2.56229 15.9931 1.5621C14.934 0.561903 13.4977 0 12 0ZM19.8776 16.2C21.4588 17.2933 22.4612 19.1867 22.5741 22.6667H1.42588C1.53882 19.2 2.54118 17.2933 4.10824 16.2C5.87294 15 8.47059 14.6667 12 14.6667C15.5294 14.6667 18.1412 15.0133 19.8776 16.2ZM12 13.3333C8.47059 13.3333 5.43529 13.6533 3.28941 15.1333C1.08706 16.64 0 19.24 0 23.3333V24H24V23.3333C24 19.24 22.9129 16.64 20.7106 15.1333C18.5647 13.6667 15.5294 13.3333 12 13.3333Z" fill="black"/>
</svg>
