<svg width="10" height="6" viewBox="0 0 10 6" fill="none" xmlns="http://www.w3.org/2000/svg">
<path fill-rule="evenodd" clip-rule="evenodd" d="M9.35402 0.146894C9.30758 0.100331 9.2524 0.0633877 9.19165 0.0381812C9.13091 0.0129748 9.06579 0 9.00002 0C8.93425 0 8.86913 0.0129748 8.80839 0.0381812C8.74764 0.0633877 8.69247 0.100331 8.64602 0.146894L5.00002 3.79389L1.35402 0.146894C1.26013 0.0530072 1.1328 0.000262171 1.00002 0.000262171C0.867245 0.000262171 0.739908 0.0530072 0.646021 0.146894C0.552135 0.24078 0.49939 0.368118 0.49939 0.500894C0.49939 0.633669 0.552135 0.761007 0.646021 0.854894L4.64602 4.85489C4.69247 4.90146 4.74764 4.9384 4.80839 4.96361C4.86913 4.98881 4.93425 5.00179 5.00002 5.00179C5.06579 5.00179 5.13091 4.98881 5.19166 4.96361C5.2524 4.9384 5.30758 4.90146 5.35402 4.85489L9.35402 0.854894C9.40058 0.808448 9.43753 0.753272 9.46273 0.692527C9.48794 0.631782 9.50091 0.566661 9.50091 0.500894C9.50091 0.435126 9.48794 0.370005 9.46273 0.30926C9.43753 0.248515 9.40058 0.193339 9.35402 0.146894Z" fill="black"/>
</svg>
